# xmcd
#
# Track frame offsets: 
#        150
#        31267
#        54457
#        77485
#        102407
#        121595
#        136850
#        158662
#        167682
#        183042
#        201717
#        222217
#        238790
#        252362
#
# Disc length: 3463 seconds
#
# Revision: 0
# Processed by: cddbd v1.4PL0 Copyright (c) Steve Scherf et al.
# Submitted via: ExactAudioCopy v0.90b4
#
DISCID=b50d850e
DTITLE=Vann 'Piano Man' Walls - In The Evening
DYEAR=1997
DGENRE=Blues
TTITLE0=In the Evening When the Sun Goes Down
TTITLE1=Drnking Wine
TTITLE2=Chains of Love
TTITLE3=Honky Tonk
TTITLE4=Slow Playing Blues
TTITLE5=Watermelon Man
TTITLE6=The Blonde Next Door
TTITLE7=Chains of Love ( Piano Solo)
TTITLE8=After Hours Session
TTITLE9=Anytime Anyplace Anywhere
TTITLE10=Unlock These Chains
TTITLE11=Supermarket Baby
TTITLE12=All My Love
TTITLE13=Misty
EXTD=With Micheal Jerome Browne and The Steven Barry Band
EXTT0=
EXTT1=
EXTT2=
EXTT3=
EXTT4=
EXTT5=
EXTT6=
EXTT7=
EXTT8=
EXTT9=
EXTT10=
EXTT11=
EXTT12=
EXTT13=
PLAYORDER=
